<?xml version="1.0" encoding="UTF-8" standalone="no"?>
<svg
   viewBox="0 0 24 24"
   id="ban"
   version="1.1"
   sodipodi:docname="handshake-circle.svg"
   xml:space="preserve"
   inkscape:version="1.4.2 (ebf0e940, 2025-05-08)"
   xmlns:inkscape="http://www.inkscape.org/namespaces/inkscape"
   xmlns:sodipodi="http://sodipodi.sourceforge.net/DTD/sodipodi-0.dtd"
   xmlns="http://www.w3.org/2000/svg"
   xmlns:svg="http://www.w3.org/2000/svg"><defs
     id="defs1"><inkscape:path-effect
       effect="powerstroke"
       message=""
       id="path-effect16"
       is_visible="true"
       lpeversion="1.3"
       scale_width="5.6410256"
       interpolator_type="CubicBezierFit"
       interpolator_beta="0.86410256"
       start_linecap_type="zerowidth"
       end_linecap_type="zerowidth"
       offset_points="35.5,0.5 | 74,0.5 | 80.5,0.5 | 88.5,0.5 | 117.5,0.5 | 146.5,0.5 | 154.5,0.5 | 168,0.5"
       linejoin_type="round"
       miter_limit="4"
       not_jump="false"
       sort_points="true" /><inkscape:path-effect
       effect="fill_between_many"
       method="bsplinespiro"
       autoreverse="false"
       close="false"
       join="false"
       linkedpaths="#path9,0,1"
       id="path-effect17" /></defs><sodipodi:namedview
     id="namedview1"
     pagecolor="#ffffff"
     bordercolor="#000000"
     borderopacity="0.25"
     inkscape:showpageshadow="2"
     inkscape:pageopacity="0.0"
     inkscape:pagecheckerboard="0"
     inkscape:deskcolor="#d1d1d1"
     inkscape:zoom="13.683125"
     inkscape:cx="9.4642122"
     inkscape:cy="14.397296"
     inkscape:window-width="1472"
     inkscape:window-height="837"
     inkscape:window-x="0"
     inkscape:window-y="34"
     inkscape:window-maximized="1"
     inkscape:current-layer="ban" /><g
     id="g1"
     transform="matrix(0.10030792,0,0,0.10030792,2.0594327,2.1147868)"><g
       id="layer6"
       inkscape:label="Layer 2"
       transform="translate(-6.62014,-33.719746)"><path
         inkscape:original-d="M 0,0"
         inkscape:path-effect="#path-effect17"
         d="m 91.944631,186.77435 c -3.130451,-0.75372 -5.954833,-3.0772 -6.737259,-5.54241 -0.210711,-0.66389 -0.277841,-0.66797 -1.396272,-0.0849 -1.677431,0.8745 -6.289011,0.85599 -7.999168,-0.0321 -1.79613,-0.93274 -3.258936,-2.36512 -4.114553,-4.02896 -0.54945,-1.06847 -0.879145,-1.35108 -1.349511,-1.15677 -4.424635,1.8278 -8.21382,1.23121 -11.001947,-1.73219 -1.389336,-1.47668 -2.196496,-3.00511 -2.532317,-4.7952 -0.24878,-1.32611 -0.24878,-1.32611 -2.890432,-1.58085 -2.711289,-0.26146 -3.71001,-0.68948 -5.534243,-2.37182 -2.233616,-2.05987 -3.233403,-5.89826 -2.461667,-9.45086 0.220363,-1.01442 0.43625,-2.07969 0.47975,-2.36728 0.06983,-0.46165 -5.26135,-4.4641 -5.93051,-4.4524 -0.143733,0.003 -0.645589,0.59759 -1.115235,1.3224 -0.529046,0.81648 -1.49622,1.60196 -2.542268,2.06467 -1.957135,0.86574 -2.883906,0.74997 -10.01338,-1.25086 -4.635091,-1.30079 -5.479409,-1.95892 -5.045806,-3.9331 0.375494,-1.70961 1.78329,-1.75166 7.370741,-0.22015 2.623685,0.71914 5.110525,1.25865 5.526311,1.1989 0.415786,-0.0597 0.978677,-0.5747 1.25087,-1.14435 0.272193,-0.56965 1.796034,-6.21349 3.386315,-12.54187 1.590281,-6.32837 3.750766,-14.82604 4.801078,-18.8837 1.050313,-4.05767 2.038727,-7.95855 2.196477,-8.66865 0.15775,-0.71009 0.804279,-3.28301 1.436732,-5.71761 1.27181,-4.895774 1.373281,-5.824971 0.694375,-6.358563 -0.253603,-0.199323 -2.702034,-0.986498 -5.440956,-1.749278 -2.738922,-0.76278 -5.251255,-1.528619 -5.582963,-1.701864 -0.796375,-0.415931 -1.172883,-2.010529 -0.688443,-2.915714 0.786649,-1.469866 1.565243,-1.529489 5.408713,-0.414188 1.996104,0.579231 4.459258,1.263295 5.473673,1.520143 4.008367,1.014909 5.917175,3.395713 5.804792,7.240157 -0.06608,2.260503 -0.06608,2.260503 1.491104,2.673413 3.182217,0.843814 6.517447,1.147024 12.623536,1.147614 9.536478,9.3e-4 14.63674,-0.942997 22.206078,-4.109781 10.440424,-4.367961 15.927744,-5.126872 23.811924,-3.293257 0.8229,0.191379 2.61698,0.172382 4.42654,-0.04687 4.21496,-0.510704 9.93956,0.0913 19.9482,2.097763 10.1936,2.043544 15.04031,2.563113 19.12814,2.050543 1.6655,-0.208836 3.17363,-0.525148 3.3514,-0.702915 0.18503,-0.185031 0.145,-0.985059 -0.0936,-1.871301 -0.34,-1.262648 -0.30653,-1.88026 0.18152,-3.349628 0.9514,-2.864406 2.21387,-3.693177 8.14001,-5.343668 5.8202,-1.620984 7.38156,-1.76263 8.13105,-0.737645 1.50446,2.057469 0.18309,3.279368 -5.02308,4.644956 -5.17436,1.357243 -6.78547,2.094511 -6.93931,3.175524 -0.0633,0.444685 0.96467,5.009555 2.28435,10.144149 1.31967,5.1346 3.41551,13.31953 4.65741,18.18872 1.24191,4.8692 3.08646,12.08999 4.09901,16.04621 1.01255,3.95622 2.07529,7.43058 2.36164,7.7208 0.45121,0.4573 1.02653,0.39096 4.31412,-0.49745 2.08641,-0.56382 4.59884,-1.27671 5.58318,-1.5842 2.14625,-0.67046 3.4115,-0.26888 3.78011,1.19976 0.48199,1.92038 -0.18778,2.4771 -4.54664,3.77921 -7.80167,2.33058 -10.55134,2.35363 -12.61095,0.10573 -0.92736,-1.01214 -0.92736,-1.01214 -3.58962,0.2179 -2.61903,1.21006 -6.09421,2.18352 -8.59683,2.4081 -1.26058,0.11313 -1.27647,0.13692 -1.67728,2.51192 -0.46331,2.7453 -1.11909,4.12583 -2.74097,5.77017 -1.579,1.60088 -3.19987,2.29132 -6.14781,2.61877 -2.44695,0.2718 -2.52473,0.31242 -2.75471,1.43865 -0.49605,2.4292 -3.20244,5.56985 -5.69838,6.61272 -0.64007,0.26744 -1.997,0.59679 -3.0154,0.73189 -1.85163,0.24562 -1.85163,0.24562 -2.48272,2.24765 -1.74923,5.54921 -8.26776,8.24813 -13.41754,5.55539 -1.0499,-0.54898 -2.04601,-0.99815 -2.21358,-0.99815 -0.16758,0 -0.59703,0.66263 -0.95434,1.4725 -1.47758,3.349 -4.60761,5.30079 -8.52984,5.31894 -2.42243,0.0112 -2.8038,-0.10755 -6.16554,-1.92004 -3.5834,-1.93199 -3.5834,-1.93199 -5.10953,-0.001 -2.347158,2.96937 -3.695209,3.79177 -7.35329,4.48598 -0.507208,0.0962 -1.547256,0.0245 -2.311219,-0.15943 z m 3.765876,-4.94378 c 0.885593,-0.45796 4.830933,-5.43241 8.021783,-10.1142 1.00751,-1.47827 1.13713,-3.95284 0.29259,-5.58599 -1.13855,-2.20172 -4.810428,-2.96392 -6.605837,-1.37122 -0.514586,0.45649 -2.596218,3.07091 -4.62585,5.80983 -3.489285,4.70868 -3.690549,5.0784 -3.695939,6.78944 -0.01186,3.76313 3.453138,6.1063 6.613253,4.47214 z m 20.309163,-3.08849 c 1.19167,-0.88099 1.82976,-3.18816 1.08222,-3.91297 -0.58762,-0.56977 -7.29944,-4.26012 -7.74807,-4.26012 -0.15632,0 -0.39377,0.49879 -0.52767,1.10843 -0.13389,0.60963 -0.81106,1.93359 -1.50482,2.94213 -0.69375,1.00854 -1.26137,1.91259 -1.26137,2.00899 0,0.28976 4.7193,2.83647 5.81036,3.13548 1.20626,0.33059 2.87619,-0.0807 4.14935,-1.02194 z m -34.549077,-1.66931 c 0.778311,-0.3252 1.913729,-1.47403 3.19001,-3.22768 1.089872,-1.49753 3.560586,-4.85807 5.490476,-7.46788 3.307394,-4.47261 3.508891,-4.84869 3.508891,-6.54904 0,-2.17423 -0.863185,-3.52344 -2.901423,-4.53511 -1.291224,-0.64089 -1.558299,-0.65772 -2.927221,-0.18444 -1.331703,0.46042 -2.115502,1.33343 -6.759996,7.52949 -2.889499,3.85478 -5.442404,7.61516 -5.673123,8.3564 -0.563382,1.81001 -0.153161,3.70186 1.068221,4.9264 1.68677,1.69114 2.993576,1.99194 5.004165,1.15186 z m 51.024947,-3.67494 c 0.9022,-0.98447 1.2303,-1.68524 1.2303,-2.62774 0,-1.50207 0.27743,-1.29738 -14.48246,-10.68553 -10.34736,-6.58153 -10.97826,-7.21362 -9.08733,-9.10454 0.55109,-0.5511 1.06459,-0.7185 1.77075,-0.57727 0.54701,0.1094 6.37283,3.63372 12.94627,7.83183 6.57343,4.1981 12.44236,7.77363 13.04205,7.94562 1.57105,0.45057 4.02405,-0.27873 5.37281,-1.59739 1.25425,-1.22627 1.62603,-2.21625 1.44084,-3.83674 -0.13095,-1.14588 -2.02725,-2.49997 -18.48778,-13.20151 -4.01523,-2.61043 -7.47375,-5.07011 -7.6856,-5.46595 -0.90435,-1.68981 0.86447,-3.60862 2.76926,-3.00407 0.42954,0.13633 2.93904,1.66184 5.57667,3.39001 14.21851,9.31595 21.87707,14.24083 22.91605,14.73629 1.65528,0.78934 3.55176,0.34008 5.09999,-1.20815 2.39833,-2.39833 1.9963,-6.16642 -0.94895,-8.89423 -0.68494,-0.63437 -9.27436,-6.91895 -19.0876,-13.96574 -17.84226,-12.81234 -17.84226,-12.81234 -21.26033,-12.55607 -3.41807,0.25626 -3.41807,0.25626 -6.22199,4.59386 -3.61028,5.58504 -5.2188,7.3812 -7.859958,8.77686 -3.181783,1.68133 -5.660878,2.08841 -8.760991,1.43857 -4.010174,-0.8406 -5.925959,-2.84306 -5.835991,-6.10001 0.05504,-1.99247 5.83774,-18.76403 7.230263,-20.96993 1.929477,-3.05649 6.074316,-6.58363 11.121557,-9.464137 2.95103,-1.684178 2.95103,-1.684178 1.09922,-1.686921 -2.4517,-0.0036 -5.996053,1.01467 -11.612253,3.336228 -5.240611,2.16631 -6.57999,2.59803 -11.313681,3.64673 -7.408502,1.64127 -19.439951,1.73058 -26.723812,0.19838 -1.457005,-0.30649 -2.726073,-0.48029 -2.820151,-0.38621 -0.09408,0.0941 -1.565158,5.61634 -3.269068,12.2717 -1.703909,6.65536 -4.028064,15.71977 -5.164788,20.14315 -1.136723,4.42337 -2.006332,8.08722 -1.932462,8.14189 0.07387,0.0547 0.964283,0.56606 1.978699,1.13642 1.014415,0.57036 2.743418,1.70505 3.842227,2.52153 2.276966,1.69193 1.660864,2.00028 5.300446,-2.65279 0.970808,-1.24114 2.440101,-2.70332 3.265096,-3.24927 1.323613,-0.87593 1.853432,-0.99179 4.505827,-0.98532 2.019197,0.005 3.369079,0.19917 4.112471,0.59178 1.37053,0.72382 3.782733,3.10876 4.07469,4.02863 0.323644,1.01972 0.638487,0.86342 2.350379,-1.16678 1.761832,-2.08943 3.505371,-3.1054 5.932357,-3.45681 4.924243,-0.713 9.13932,2.19464 10.320766,7.11946 0.428846,1.78763 0.428846,1.78763 2.708266,2.04132 4.023932,0.44785 7.001631,3.01578 8.05233,6.94423 0.44208,1.65289 0.44208,1.65289 2.595641,1.87798 1.18446,0.1238 2.774,0.54487 3.53232,0.9357 1.40241,0.72281 3.38477,2.61569 4.04237,3.8599 0.19968,0.37781 4.57892,2.98494 9.73163,5.79362 9.13887,4.98148 9.41755,5.10396 11.36596,4.9953 1.75942,-0.0981 2.14397,-0.27134 3.22769,-1.45388 z m -63.495984,-2.51204 c 0.666091,-0.68145 4.048322,-5.11071 7.516069,-9.84281 6.080471,-8.29743 6.304996,-8.66658 6.304996,-10.36626 0,-2.33356 -1.165478,-4.08855 -3.181857,-4.79127 -1.38707,-0.4834 -1.618084,-0.46227 -3.123441,0.28568 -1.34957,0.67055 -2.408512,1.87822 -6.236567,7.11249 -2.536039,3.46763 -5.601023,7.64689 -6.811076,9.28725 -2.006537,2.72007 -2.199729,3.1463 -2.195931,4.84476 0.0072,3.22651 1.934007,5.13619 4.903063,4.85952 1.231307,-0.11474 1.900637,-0.44395 2.824744,-1.38936 z m -12.608044,-7.83234 c 0.87241,-0.36451 2.234701,-1.88541 4.851,-5.41576 3.309335,-4.46551 3.65035,-5.07778 3.775472,-6.77849 0.169675,-2.30632 -0.796773,-4.06166 -2.666342,-4.84281 -2.792349,-1.16672 -4.19196,-0.36697 -7.672515,4.38413 -4.309429,5.88254 -4.688682,6.51971 -4.688682,7.87722 0,1.80927 1.2232,3.9598 2.653107,4.66448 1.5021,0.74025 2.193398,0.76077 3.74796,0.11123 z M 164.79171,146.05026 c 1.14372,-0.2979 3.32184,-1.11549 4.84028,-1.81687 2.7608,-1.27523 2.7608,-1.27523 2.47134,-2.50161 -0.6943,-2.94168 -4.15281,-16.58191 -4.80038,-18.93253 -0.39124,-1.42019 -1.38061,-5.23808 -2.19859,-8.48421 -0.81798,-3.24613 -1.84505,-7.31301 -2.28238,-9.03752 -0.43733,-1.7245 -0.91483,-3.26994 -1.06111,-3.43431 -0.14628,-0.16436 -2.00573,-0.10307 -4.1321,0.1362 -5.08405,0.57208 -9.81148,0.10103 -20.46735,-2.039409 -10.6915,-2.147594 -15.43188,-2.668061 -18.97347,-2.083178 -6.55183,1.082011 -17.36794,7.004277 -21.091605,11.548517 -1.25924,1.53674 -2.052876,3.45292 -5.547442,13.39391 -2.142823,6.09568 -2.297131,6.77368 -1.681728,7.38908 0.795884,0.79588 3.750944,1.08183 5.659034,0.5476 2.485177,-0.69581 4.478431,-2.67431 7.622841,-7.56643 4.42795,-6.88908 3.77205,-6.39404 9.27142,-6.99755 2.83362,-0.31097 5.13007,-0.39267 5.78197,-0.2057 0.59478,0.17058 8.19025,5.41808 16.87883,11.66111 8.68858,6.24304 17.13578,12.31094 18.77157,13.48423 1.63579,1.1733 3.65954,2.88635 4.49721,3.80679 1.74038,1.91233 2.75849,2.09123 6.44166,1.13188 z"
         id="path17"
style="fill:#333f5c"
style="opacity:1;fill:#333f5c;fill-opacity:1;fill-rule:nonzero;stroke:none"
         d="m 91.944631,186.77435 c -3.130451,-0.75372 -5.954833,-3.0772 -6.737259,-5.54241 -0.210711,-0.66389 -0.277841,-0.66797 -1.396272,-0.0849 -1.677431,0.8745 -6.289011,0.85599 -7.999168,-0.0321 -1.79613,-0.93274 -3.258936,-2.36512 -4.114553,-4.02896 -0.54945,-1.06847 -0.879145,-1.35108 -1.349511,-1.15677 -4.424635,1.8278 -8.21382,1.23121 -11.001947,-1.73219 -1.389336,-1.47668 -2.196496,-3.00511 -2.532317,-4.7952 -0.24878,-1.32611 -0.24878,-1.32611 -2.890432,-1.58085 -2.711289,-0.26146 -3.71001,-0.68948 -5.534243,-2.37182 -2.233616,-2.05987 -3.233403,-5.89826 -2.461667,-9.45086 0.220363,-1.01442 0.43625,-2.07969 0.47975,-2.36728 0.06983,-0.46165 -5.26135,-4.4641 -5.93051,-4.4524 -0.143733,0.003 -0.645589,0.59759 -1.115235,1.3224 -0.529046,0.81648 -1.49622,1.60196 -2.542268,2.06467 -1.957135,0.86574 -2.883906,0.74997 -10.01338,-1.25086 -4.635091,-1.30079 -5.479409,-1.95892 -5.045806,-3.9331 0.375494,-1.70961 1.78329,-1.75166 7.370741,-0.22015 2.623685,0.71914 5.110525,1.25865 5.526311,1.1989 0.415786,-0.0597 0.978677,-0.5747 1.25087,-1.14435 0.272193,-0.56965 1.796034,-6.21349 3.386315,-12.54187 1.590281,-6.32837 3.750766,-14.82604 4.801078,-18.8837 1.050313,-4.05767 2.038727,-7.95855 2.196477,-8.66865 0.15775,-0.71009 0.804279,-3.28301 1.436732,-5.71761 1.27181,-4.895774 1.373281,-5.824971 0.694375,-6.358563 -0.253603,-0.199323 -2.702034,-0.986498 -5.440956,-1.749278 -2.738922,-0.76278 -5.251255,-1.528619 -5.582963,-1.701864 -0.796375,-0.415931 -1.172883,-2.010529 -0.688443,-2.915714 0.786649,-1.469866 1.565243,-1.529489 5.408713,-0.414188 1.996104,0.579231 4.459258,1.263295 5.473673,1.520143 4.008367,1.014909 5.917175,3.395713 5.804792,7.240157 -0.06608,2.260503 -0.06608,2.260503 1.491104,2.673413 3.182217,0.843814 6.517447,1.147024 12.623536,1.147614 9.536478,9.3e-4 14.63674,-0.942997 22.206078,-4.109781 10.440424,-4.367961 15.927744,-5.126872 23.811924,-3.293257 0.8229,0.191379 2.61698,0.172382 4.42654,-0.04687 4.21496,-0.510704 9.93956,0.0913 19.9482,2.097763 10.1936,2.043544 15.04031,2.563113 19.12814,2.050543 1.6655,-0.208836 3.17363,-0.525148 3.3514,-0.702915 0.18503,-0.185031 0.145,-0.985059 -0.0936,-1.871301 -0.34,-1.262648 -0.30653,-1.88026 0.18152,-3.349628 0.9514,-2.864406 2.21387,-3.693177 8.14001,-5.343668 5.8202,-1.620984 7.38156,-1.76263 8.13105,-0.737645 1.50446,2.057469 0.18309,3.279368 -5.02308,4.644956 -5.17436,1.357243 -6.78547,2.094511 -6.93931,3.175524 -0.0633,0.444685 0.96467,5.009555 2.28435,10.144149 1.31967,5.1346 3.41551,13.31953 4.65741,18.18872 1.24191,4.8692 3.08646,12.08999 4.09901,16.04621 1.01255,3.95622 2.07529,7.43058 2.36164,7.7208 0.45121,0.4573 1.02653,0.39096 4.31412,-0.49745 2.08641,-0.56382 4.59884,-1.27671 5.58318,-1.5842 2.14625,-0.67046 3.4115,-0.26888 3.78011,1.19976 0.48199,1.92038 -0.18778,2.4771 -4.54664,3.77921 -7.80167,2.33058 -10.55134,2.35363 -12.61095,0.10573 -0.92736,-1.01214 -0.92736,-1.01214 -3.58962,0.2179 -2.61903,1.21006 -6.09421,2.18352 -8.59683,2.4081 -1.26058,0.11313 -1.27647,0.13692 -1.67728,2.51192 -0.46331,2.7453 -1.11909,4.12583 -2.74097,5.77017 -1.579,1.60088 -3.19987,2.29132 -6.14781,2.61877 -2.44695,0.2718 -2.52473,0.31242 -2.75471,1.43865 -0.49605,2.4292 -3.20244,5.56985 -5.69838,6.61272 -0.64007,0.26744 -1.997,0.59679 -3.0154,0.73189 -1.85163,0.24562 -1.85163,0.24562 -2.48272,2.24765 -1.74923,5.54921 -8.26776,8.24813 -13.41754,5.55539 -1.0499,-0.54898 -2.04601,-0.99815 -2.21358,-0.99815 -0.16758,0 -0.59703,0.66263 -0.95434,1.4725 -1.47758,3.349 -4.60761,5.30079 -8.52984,5.31894 -2.42243,0.0112 -2.8038,-0.10755 -6.16554,-1.92004 -3.5834,-1.93199 -3.5834,-1.93199 -5.10953,-0.001 -2.347158,2.96937 -3.695209,3.79177 -7.35329,4.48598 -0.507208,0.0962 -1.547256,0.0245 -2.311219,-0.15943 z m 3.765876,-4.94378 c 0.885593,-0.45796 4.830933,-5.43241 8.021783,-10.1142 1.00751,-1.47827 1.13713,-3.95284 0.29259,-5.58599 -1.13855,-2.20172 -4.810428,-2.96392 -6.605837,-1.37122 -0.514586,0.45649 -2.596218,3.07091 -4.62585,5.80983 -3.489285,4.70868 -3.690549,5.0784 -3.695939,6.78944 -0.01186,3.76313 3.453138,6.1063 6.613253,4.47214 z m 20.309163,-3.08849 c 1.19167,-0.88099 1.82976,-3.18816 1.08222,-3.91297 -0.58762,-0.56977 -7.29944,-4.26012 -7.74807,-4.26012 -0.15632,0 -0.39377,0.49879 -0.52767,1.10843 -0.13389,0.60963 -0.81106,1.93359 -1.50482,2.94213 -0.69375,1.00854 -1.26137,1.91259 -1.26137,2.00899 0,0.28976 4.7193,2.83647 5.81036,3.13548 1.20626,0.33059 2.87619,-0.0807 4.14935,-1.02194 z m -34.549077,-1.66931 c 0.778311,-0.3252 1.913729,-1.47403 3.19001,-3.22768 1.089872,-1.49753 3.560586,-4.85807 5.490476,-7.46788 3.307394,-4.47261 3.508891,-4.84869 3.508891,-6.54904 0,-2.17423 -0.863185,-3.52344 -2.901423,-4.53511 -1.291224,-0.64089 -1.558299,-0.65772 -2.927221,-0.18444 -1.331703,0.46042 -2.115502,1.33343 -6.759996,7.52949 -2.889499,3.85478 -5.442404,7.61516 -5.673123,8.3564 -0.563382,1.81001 -0.153161,3.70186 1.068221,4.9264 1.68677,1.69114 2.993576,1.99194 5.004165,1.15186 z m 51.024947,-3.67494 c 0.9022,-0.98447 1.2303,-1.68524 1.2303,-2.62774 0,-1.50207 0.27743,-1.29738 -14.48246,-10.68553 -10.34736,-6.58153 -10.97826,-7.21362 -9.08733,-9.10454 0.55109,-0.5511 1.06459,-0.7185 1.77075,-0.57727 0.54701,0.1094 6.37283,3.63372 12.94627,7.83183 6.57343,4.1981 12.44236,7.77363 13.04205,7.94562 1.57105,0.45057 4.02405,-0.27873 5.37281,-1.59739 1.25425,-1.22627 1.62603,-2.21625 1.44084,-3.83674 -0.13095,-1.14588 -2.02725,-2.49997 -18.48778,-13.20151 -4.01523,-2.61043 -7.47375,-5.07011 -7.6856,-5.46595 -0.90435,-1.68981 0.86447,-3.60862 2.76926,-3.00407 0.42954,0.13633 2.93904,1.66184 5.57667,3.39001 14.21851,9.31595 21.87707,14.24083 22.91605,14.73629 1.65528,0.78934 3.55176,0.34008 5.09999,-1.20815 2.39833,-2.39833 1.9963,-6.16642 -0.94895,-8.89423 -0.68494,-0.63437 -9.27436,-6.91895 -19.0876,-13.96574 -17.84226,-12.81234 -17.84226,-12.81234 -21.26033,-12.55607 -3.41807,0.25626 -3.41807,0.25626 -6.22199,4.59386 -3.61028,5.58504 -5.2188,7.3812 -7.859958,8.77686 -3.181783,1.68133 -5.660878,2.08841 -8.760991,1.43857 -4.010174,-0.8406 -5.925959,-2.84306 -5.835991,-6.10001 0.05504,-1.99247 5.83774,-18.76403 7.230263,-20.96993 1.929477,-3.05649 6.074316,-6.58363 11.121557,-9.464137 2.95103,-1.684178 2.95103,-1.684178 1.09922,-1.686921 -2.4517,-0.0036 -5.996053,1.01467 -11.612253,3.336228 -5.240611,2.16631 -6.57999,2.59803 -11.313681,3.64673 -7.408502,1.64127 -19.439951,1.73058 -26.723812,0.19838 -1.457005,-0.30649 -2.726073,-0.48029 -2.820151,-0.38621 -0.09408,0.0941 -1.565158,5.61634 -3.269068,12.2717 -1.703909,6.65536 -4.028064,15.71977 -5.164788,20.14315 -1.136723,4.42337 -2.006332,8.08722 -1.932462,8.14189 0.07387,0.0547 0.964283,0.56606 1.978699,1.13642 1.014415,0.57036 2.743418,1.70505 3.842227,2.52153 2.276966,1.69193 1.660864,2.00028 5.300446,-2.65279 0.970808,-1.24114 2.440101,-2.70332 3.265096,-3.24927 1.323613,-0.87593 1.853432,-0.99179 4.505827,-0.98532 2.019197,0.005 3.369079,0.19917 4.112471,0.59178 1.37053,0.72382 3.782733,3.10876 4.07469,4.02863 0.323644,1.01972 0.638487,0.86342 2.350379,-1.16678 1.761832,-2.08943 3.505371,-3.1054 5.932357,-3.45681 4.924243,-0.713 9.13932,2.19464 10.320766,7.11946 0.428846,1.78763 0.428846,1.78763 2.708266,2.04132 4.023932,0.44785 7.001631,3.01578 8.05233,6.94423 0.44208,1.65289 0.44208,1.65289 2.595641,1.87798 1.18446,0.1238 2.774,0.54487 3.53232,0.9357 1.40241,0.72281 3.38477,2.61569 4.04237,3.8599 0.19968,0.37781 4.57892,2.98494 9.73163,5.79362 9.13887,4.98148 9.41755,5.10396 11.36596,4.9953 1.75942,-0.0981 2.14397,-0.27134 3.22769,-1.45388 z m -63.495984,-2.51204 c 0.666091,-0.68145 4.048322,-5.11071 7.516069,-9.84281 6.080471,-8.29743 6.304996,-8.66658 6.304996,-10.36626 0,-2.33356 -1.165478,-4.08855 -3.181857,-4.79127 -1.38707,-0.4834 -1.618084,-0.46227 -3.123441,0.28568 -1.34957,0.67055 -2.408512,1.87822 -6.236567,7.11249 -2.536039,3.46763 -5.601023,7.64689 -6.811076,9.28725 -2.006537,2.72007 -2.199729,3.1463 -2.195931,4.84476 0.0072,3.22651 1.934007,5.13619 4.903063,4.85952 1.231307,-0.11474 1.900637,-0.44395 2.824744,-1.38936 z m -12.608044,-7.83234 c 0.87241,-0.36451 2.234701,-1.88541 4.851,-5.41576 3.309335,-4.46551 3.65035,-5.07778 3.775472,-6.77849 0.169675,-2.30632 -0.796773,-4.06166 -2.666342,-4.84281 -2.792349,-1.16672 -4.19196,-0.36697 -7.672515,4.38413 -4.309429,5.88254 -4.688682,6.51971 -4.688682,7.87722 0,1.80927 1.2232,3.9598 2.653107,4.66448 1.5021,0.74025 2.193398,0.76077 3.74796,0.11123 z M 164.79171,146.05026 c 1.14372,-0.2979 3.32184,-1.11549 4.84028,-1.81687 2.7608,-1.27523 2.7608,-1.27523 2.47134,-2.50161 -0.6943,-2.94168 -4.15281,-16.58191 -4.80038,-18.93253 -0.39124,-1.42019 -1.38061,-5.23808 -2.19859,-8.48421 -0.81798,-3.24613 -1.84505,-7.31301 -2.28238,-9.03752 -0.43733,-1.7245 -0.91483,-3.26994 -1.06111,-3.43431 -0.14628,-0.16436 -2.00573,-0.10307 -4.1321,0.1362 -5.08405,0.57208 -9.81148,0.10103 -20.46735,-2.039409 -10.6915,-2.147594 -15.43188,-2.668061 -18.97347,-2.083178 -6.55183,1.082011 -17.36794,7.004277 -21.091605,11.548517 -1.25924,1.53674 -2.052876,3.45292 -5.547442,13.39391 -2.142823,6.09568 -2.297131,6.77368 -1.681728,7.38908 0.795884,0.79588 3.750944,1.08183 5.659034,0.5476 2.485177,-0.69581 4.478431,-2.67431 7.622841,-7.56643 4.42795,-6.88908 3.77205,-6.39404 9.27142,-6.99755 2.83362,-0.31097 5.13007,-0.39267 5.78197,-0.2057 0.59478,0.17058 8.19025,5.41808 16.87883,11.66111 8.68858,6.24304 17.13578,12.31094 18.77157,13.48423 1.63579,1.1733 3.65954,2.88635 4.49721,3.80679 1.74038,1.91233 2.75849,2.09123 6.44166,1.13188 z"
         id="path9"
         inkscape:path-effect="#path-effect16"
         inkscape:original-d="m 91.944631,186.77435 c -3.130451,-0.75372 -5.954833,-3.0772 -6.737259,-5.54241 -0.210711,-0.66389 -0.277841,-0.66797 -1.396272,-0.0849 -1.677431,0.8745 -6.289011,0.85599 -7.999168,-0.0321 -1.79613,-0.93274 -3.258936,-2.36512 -4.114553,-4.02896 -0.54945,-1.06847 -0.879145,-1.35108 -1.349511,-1.15677 -4.424635,1.8278 -8.21382,1.23121 -11.001947,-1.73219 -1.389336,-1.47668 -2.196496,-3.00511 -2.532317,-4.7952 -0.24878,-1.32611 -0.24878,-1.32611 -2.890432,-1.58085 -2.711289,-0.26146 -3.71001,-0.68948 -5.534243,-2.37182 -2.233616,-2.05987 -3.233403,-5.89826 -2.461667,-9.45086 0.220363,-1.01442 0.43625,-2.07969 0.47975,-2.36728 0.06983,-0.46165 -5.26135,-4.4641 -5.93051,-4.4524 -0.143733,0.003 -0.645589,0.59759 -1.115235,1.3224 -0.529046,0.81648 -1.49622,1.60196 -2.542268,2.06467 -1.957135,0.86574 -2.883906,0.74997 -10.01338,-1.25086 -4.635091,-1.30079 -5.479409,-1.95892 -5.045806,-3.9331 0.375494,-1.70961 1.78329,-1.75166 7.370741,-0.22015 2.623685,0.71914 5.110525,1.25865 5.526311,1.1989 0.415786,-0.0597 0.978677,-0.5747 1.25087,-1.14435 0.272193,-0.56965 1.796034,-6.21349 3.386315,-12.54187 1.590281,-6.32837 3.750766,-14.82604 4.801078,-18.8837 1.050313,-4.05767 2.038727,-7.95855 2.196477,-8.66865 0.15775,-0.71009 0.804279,-3.28301 1.436732,-5.71761 1.27181,-4.895774 1.373281,-5.824971 0.694375,-6.358563 -0.253603,-0.199323 -2.702034,-0.986498 -5.440956,-1.749278 -2.738922,-0.76278 -5.251255,-1.528619 -5.582963,-1.701864 -0.796375,-0.415931 -1.172883,-2.010529 -0.688443,-2.915714 0.786649,-1.469866 1.565243,-1.529489 5.408713,-0.414188 1.996104,0.579231 4.459258,1.263295 5.473673,1.520143 4.008367,1.014909 5.917175,3.395713 5.804792,7.240157 -0.06608,2.260503 -0.06608,2.260503 1.491104,2.673413 3.182217,0.843814 6.517447,1.147024 12.623536,1.147614 9.536478,9.3e-4 14.63674,-0.942997 22.206078,-4.109781 10.440424,-4.367961 15.927744,-5.126872 23.811924,-3.293257 0.8229,0.191379 2.61698,0.172382 4.42654,-0.04687 4.21496,-0.510704 9.93956,0.0913 19.9482,2.097763 10.1936,2.043544 15.04031,2.563113 19.12814,2.050543 1.6655,-0.208836 3.17363,-0.525148 3.3514,-0.702915 0.18503,-0.185031 0.145,-0.985059 -0.0936,-1.871301 -0.34,-1.262648 -0.30653,-1.88026 0.18152,-3.349628 0.9514,-2.864406 2.21387,-3.693177 8.14001,-5.343668 5.8202,-1.620984 7.38156,-1.76263 8.13105,-0.737645 1.50446,2.057469 0.18309,3.279368 -5.02308,4.644956 -5.17436,1.357243 -6.78547,2.094511 -6.93931,3.175524 -0.0633,0.444685 0.96467,5.009555 2.28435,10.144149 1.31967,5.1346 3.41551,13.31953 4.65741,18.18872 1.24191,4.8692 3.08646,12.08999 4.09901,16.04621 1.01255,3.95622 2.07529,7.43058 2.36164,7.7208 0.45121,0.4573 1.02653,0.39096 4.31412,-0.49745 2.08641,-0.56382 4.59884,-1.27671 5.58318,-1.5842 2.14625,-0.67046 3.4115,-0.26888 3.78011,1.19976 0.48199,1.92038 -0.18778,2.4771 -4.54664,3.77921 -7.80167,2.33058 -10.55134,2.35363 -12.61095,0.10573 -0.92736,-1.01214 -0.92736,-1.01214 -3.58962,0.2179 -2.61903,1.21006 -6.09421,2.18352 -8.59683,2.4081 -1.26058,0.11313 -1.27647,0.13692 -1.67728,2.51192 -0.46331,2.7453 -1.11909,4.12583 -2.74097,5.77017 -1.579,1.60088 -3.19987,2.29132 -6.14781,2.61877 -2.44695,0.2718 -2.52473,0.31242 -2.75471,1.43865 -0.49605,2.4292 -3.20244,5.56985 -5.69838,6.61272 -0.64007,0.26744 -1.997,0.59679 -3.0154,0.73189 -1.85163,0.24562 -1.85163,0.24562 -2.48272,2.24765 -1.74923,5.54921 -8.26776,8.24813 -13.41754,5.55539 -1.0499,-0.54898 -2.04601,-0.99815 -2.21358,-0.99815 -0.16758,0 -0.59703,0.66263 -0.95434,1.4725 -1.47758,3.349 -4.60761,5.30079 -8.52984,5.31894 -2.42243,0.0112 -2.8038,-0.10755 -6.16554,-1.92004 -3.5834,-1.93199 -3.5834,-1.93199 -5.10953,-0.001 -2.347158,2.96937 -3.695209,3.79177 -7.35329,4.48598 -0.507208,0.0962 -1.547256,0.0245 -2.311219,-0.15943 z m 3.765876,-4.94378 c 0.885593,-0.45796 4.830933,-5.43241 8.021783,-10.1142 1.00751,-1.47827 1.13713,-3.95284 0.29259,-5.58599 -1.13855,-2.20172 -4.810428,-2.96392 -6.605837,-1.37122 -0.514586,0.45649 -2.596218,3.07091 -4.62585,5.80983 -3.489285,4.70868 -3.690549,5.0784 -3.695939,6.78944 -0.01186,3.76313 3.453138,6.1063 6.613253,4.47214 z m 20.309163,-3.08849 c 1.19167,-0.88099 1.82976,-3.18816 1.08222,-3.91297 -0.58762,-0.56977 -7.29944,-4.26012 -7.74807,-4.26012 -0.15632,0 -0.39377,0.49879 -0.52767,1.10843 -0.13389,0.60963 -0.81106,1.93359 -1.50482,2.94213 -0.69375,1.00854 -1.26137,1.91259 -1.26137,2.00899 0,0.28976 4.7193,2.83647 5.81036,3.13548 1.20626,0.33059 2.87619,-0.0807 4.14935,-1.02194 z m -34.549077,-1.66931 c 0.778311,-0.3252 1.913729,-1.47403 3.19001,-3.22768 1.089872,-1.49753 3.560586,-4.85807 5.490476,-7.46788 3.307394,-4.47261 3.508891,-4.84869 3.508891,-6.54904 0,-2.17423 -0.863185,-3.52344 -2.901423,-4.53511 -1.291224,-0.64089 -1.558299,-0.65772 -2.927221,-0.18444 -1.331703,0.46042 -2.115502,1.33343 -6.759996,7.52949 -2.889499,3.85478 -5.442404,7.61516 -5.673123,8.3564 -0.563382,1.81001 -0.153161,3.70186 1.068221,4.9264 1.68677,1.69114 2.993576,1.99194 5.004165,1.15186 z m 51.024947,-3.67494 c 0.9022,-0.98447 1.2303,-1.68524 1.2303,-2.62774 0,-1.50207 0.27743,-1.29738 -14.48246,-10.68553 -10.34736,-6.58153 -10.97826,-7.21362 -9.08733,-9.10454 0.55109,-0.5511 1.06459,-0.7185 1.77075,-0.57727 0.54701,0.1094 6.37283,3.63372 12.94627,7.83183 6.57343,4.1981 12.44236,7.77363 13.04205,7.94562 1.57105,0.45057 4.02405,-0.27873 5.37281,-1.59739 1.25425,-1.22627 1.62603,-2.21625 1.44084,-3.83674 -0.13095,-1.14588 -2.02725,-2.49997 -18.48778,-13.20151 -4.01523,-2.61043 -7.47375,-5.07011 -7.6856,-5.46595 -0.90435,-1.68981 0.86447,-3.60862 2.76926,-3.00407 0.42954,0.13633 2.93904,1.66184 5.57667,3.39001 14.21851,9.31595 21.87707,14.24083 22.91605,14.73629 1.65528,0.78934 3.55176,0.34008 5.09999,-1.20815 2.39833,-2.39833 1.9963,-6.16642 -0.94895,-8.89423 -0.68494,-0.63437 -9.27436,-6.91895 -19.0876,-13.96574 -17.84226,-12.81234 -17.84226,-12.81234 -21.26033,-12.55607 -3.41807,0.25626 -3.41807,0.25626 -6.22199,4.59386 -3.61028,5.58504 -5.2188,7.3812 -7.859958,8.77686 -3.181783,1.68133 -5.660878,2.08841 -8.760991,1.43857 -4.010174,-0.8406 -5.925959,-2.84306 -5.835991,-6.10001 0.05504,-1.99247 5.83774,-18.76403 7.230263,-20.96993 1.929477,-3.05649 6.074316,-6.58363 11.121557,-9.464137 2.95103,-1.684178 2.95103,-1.684178 1.09922,-1.686921 -2.4517,-0.0036 -5.996053,1.01467 -11.612253,3.336228 -5.240611,2.16631 -6.57999,2.59803 -11.313681,3.64673 -7.408502,1.64127 -19.439951,1.73058 -26.723812,0.19838 -1.457005,-0.30649 -2.726073,-0.48029 -2.820151,-0.38621 -0.09408,0.0941 -1.565158,5.61634 -3.269068,12.2717 -1.703909,6.65536 -4.028064,15.71977 -5.164788,20.14315 -1.136723,4.42337 -2.006332,8.08722 -1.932462,8.14189 0.07387,0.0547 0.964283,0.56606 1.978699,1.13642 1.014415,0.57036 2.743418,1.70505 3.842227,2.52153 2.276966,1.69193 1.660864,2.00028 5.300446,-2.65279 0.970808,-1.24114 2.440101,-2.70332 3.265096,-3.24927 1.323613,-0.87593 1.853432,-0.99179 4.505827,-0.98532 2.019197,0.005 3.369079,0.19917 4.112471,0.59178 1.37053,0.72382 3.782733,3.10876 4.07469,4.02863 0.323644,1.01972 0.638487,0.86342 2.350379,-1.16678 1.761832,-2.08943 3.505371,-3.1054 5.932357,-3.45681 4.924243,-0.713 9.13932,2.19464 10.320766,7.11946 0.428846,1.78763 0.428846,1.78763 2.708266,2.04132 4.023932,0.44785 7.001631,3.01578 8.05233,6.94423 0.44208,1.65289 0.44208,1.65289 2.595641,1.87798 1.18446,0.1238 2.774,0.54487 3.53232,0.9357 1.40241,0.72281 3.38477,2.61569 4.04237,3.8599 0.19968,0.37781 4.57892,2.98494 9.73163,5.79362 9.13887,4.98148 9.41755,5.10396 11.36596,4.9953 1.75942,-0.0981 2.14397,-0.27134 3.22769,-1.45388 z m -63.495984,-2.51204 c 0.666091,-0.68145 4.048322,-5.11071 7.516069,-9.84281 6.080471,-8.29743 6.304996,-8.66658 6.304996,-10.36626 0,-2.33356 -1.165478,-4.08855 -3.181857,-4.79127 -1.38707,-0.4834 -1.618084,-0.46227 -3.123441,0.28568 -1.34957,0.67055 -2.408512,1.87822 -6.236567,7.11249 -2.536039,3.46763 -5.601023,7.64689 -6.811076,9.28725 -2.006537,2.72007 -2.199729,3.1463 -2.195931,4.84476 0.0072,3.22651 1.934007,5.13619 4.903063,4.85952 1.231307,-0.11474 1.900637,-0.44395 2.824744,-1.38936 z m -12.608044,-7.83234 c 0.87241,-0.36451 2.234701,-1.88541 4.851,-5.41576 3.309335,-4.46551 3.65035,-5.07778 3.775472,-6.77849 0.169675,-2.30632 -0.796773,-4.06166 -2.666342,-4.84281 -2.792349,-1.16672 -4.19196,-0.36697 -7.672515,4.38413 -4.309429,5.88254 -4.688682,6.51971 -4.688682,7.87722 0,1.80927 1.2232,3.9598 2.653107,4.66448 1.5021,0.74025 2.193398,0.76077 3.74796,0.11123 z M 164.79171,146.05026 c 1.14372,-0.2979 3.32184,-1.11549 4.84028,-1.81687 2.7608,-1.27523 2.7608,-1.27523 2.47134,-2.50161 -0.6943,-2.94168 -4.15281,-16.58191 -4.80038,-18.93253 -0.39124,-1.42019 -1.38061,-5.23808 -2.19859,-8.48421 -0.81798,-3.24613 -1.84505,-7.31301 -2.28238,-9.03752 -0.43733,-1.7245 -0.91483,-3.26994 -1.06111,-3.43431 -0.14628,-0.16436 -2.00573,-0.10307 -4.1321,0.1362 -5.08405,0.57208 -9.81148,0.10103 -20.46735,-2.039409 -10.6915,-2.147594 -15.43188,-2.668061 -18.97347,-2.083178 -6.55183,1.082011 -17.36794,7.004277 -21.091605,11.548517 -1.25924,1.53674 -2.052876,3.45292 -5.547442,13.39391 -2.142823,6.09568 -2.297131,6.77368 -1.681728,7.38908 0.795884,0.79588 3.750944,1.08183 5.659034,0.5476 2.485177,-0.69581 4.478431,-2.67431 7.622841,-7.56643 4.42795,-6.88908 3.77205,-6.39404 9.27142,-6.99755 2.83362,-0.31097 5.13007,-0.39267 5.78197,-0.2057 0.59478,0.17058 8.19025,5.41808 16.87883,11.66111 8.68858,6.24304 17.13578,12.31094 18.77157,13.48423 1.63579,1.1733 3.65954,2.88635 4.49721,3.80679 1.74038,1.91233 2.75849,2.09123 6.44166,1.13188 z"
         inkscape:linked-fill="path17" /></g><g
       id="layer7"
       inkscape:label="Layer 3"
       transform="translate(-6.62014,-33.719746)"><path
         id="path1-0"
style="opacity:1;fill:#333f5c;fill-opacity:1;stroke-width:9.88533"
         d="M 105.47361,33.719746 A 98.85358,98.85358 0 1 0 204.3273,132.57285 98.85358,98.85358 0 0 0 105.47361,33.719746 Z m 3.65275,19.855025 a 79.082866,79.082866 0 0 1 75.43066,78.998079 79.082866,79.082866 0 0 1 -79.08341,79.0834 79.082866,79.082866 0 1 1 3.65275,-158.081479 z m 35.5053,45.933283 c -0.0971,0.117049 -0.20565,0.227822 -0.32639,0.330974 0.95944,0.680052 1.9232,1.353502 2.89059,2.021922 a 9.885358,9.885358 0 0 0 -0.89558,-1.01983 9.885358,9.885358 0 0 0 -1.66862,-1.333066 z M 59.184735,134.51804 c -0.0025,2.8e-4 -0.0045,10e-4 -0.0063,0.002 h -5.71e-4 -5.73e-4 v 5.7e-4 h -5.73e-4 l -5.73e-4,5.7e-4 -5.72e-4,5.8e-4 -5.73e-4,5.7e-4 v 5.7e-4 l -5.73e-4,5.7e-4 v 5.8e-4 5.6e-4 h -5.72e-4 v 5.8e-4 5.8e-4 c 3.06e-4,0.003 0.0032,0.01 0.0092,0.0172 0.06693,0.0791 0.197476,0.0682 0.300052,0.0848 0.085,0.0139 0.168449,0.0242 0.250235,0.032 -0.09265,-0.0249 -0.186283,-0.0473 -0.280583,-0.0681 -0.06742,-0.0122 -0.218619,-0.0733 -0.265124,-0.0733 -9.69e-4,0 -0.002,-9e-5 -0.0029,0 z" /></g></g></svg>
